# xmcd CD database file
#
# Track frame offsets:
#	150
#	10262
#	20387
#	48962
#	60737
#	84737
#	100112
#	119387
#	140987
#	163262
#	187937
#	211487
#	231137
#	238937
#
# Disc length: 3598 seconds
#
# Revision: 0
# Processed by: cddbd v1.4PL0 Copyright (c) Steve Scherf et al.
# Submitted via: CDex 1.50
#
DISCID=c20e0c0e
DTITLE=Hans Feigenwinter  - Lift
DYEAR=1994
DGENRE=Jazz
TTITLE0=Balance
TTITLE1=The Gap
TTITLE2=Hals
TTITLE3=Limerick
TTITLE4=Sehr Nett
TTITLE5=Yellow Waiting
TTITLE6=Remember Date
TTITLE7=Sisiphus
TTITLE8=Die Befreiung
TTITLE9=Down
TTITLE10=Spring Low
TTITLE11=Süss
TTITLE12=Schnee
TTITLE13=Dunkler Frieden
EXTD=YEAR: 1994
EXTT0=
EXTT1=
EXTT2=
EXTT3=
EXTT4=
EXTT5=
EXTT6=
EXTT7=
EXTT8=
EXTT9=
EXTT10=
EXTT11=
EXTT12=
EXTT13=
PLAYORDER=
